<?xml version="1.0" encoding="UTF-8"?>
<svg width="24px" height="24px" viewBox="0 0 24 24" xmlns="http://www.w3.org/2000/svg">
  <path d="M12,3 C16.9705627,3 21,7.02943725 21,12 L21,16.5 C21,17.8807119 19.8807119,19 18.5,19 L16.5,19 C15.1192881,19 14,17.8807119 14,16.5 L14,14.5 C14,13.1192881 15.1192881,12 16.5,12 L19,12 C19,8.13400675 15.8659932,5 12,5 C8.13400675,5 5,8.13400675 5,12 L7.5,12 C8.88071187,12 10,13.1192881 10,14.5 L10,16.5 C10,17.8807119 8.88071187,19 7.5,19 L5.5,19 C4.11928813,19 3,17.8807119 3,16.5 L3,12 C3,7.02943725 7.02943725,3 12,3 Z" fill="#176B87"/>
</svg>
