<?xml version="1.0" encoding="UTF-8"?>
<svg width="24px" height="24px" viewBox="0 0 24 24" xmlns="http://www.w3.org/2000/svg">
  <path d="M9,16 L15,16 C16.1045695,16 17,15.1045695 17,14 L17,10 C17,8.8954305 16.1045695,8 15,8 L9,8 C7.8954305,8 7,8.8954305 7,10 L7,14 C7,15.1045695 7.8954305,16 9,16 Z M9,6 L15,6 L15,4 C15,3.44771525 14.5522847,3 14,3 L10,3 C9.44771525,3 9,3.44771525 9,4 L9,6 Z M9,18 L15,18 L15,20 C15,20.5522847 14.5522847,21 14,21 L10,21 C9.44771525,21 9,20.5522847 9,20 L9,18 Z" fill="#176B87"/>
  <rect x="11" y="10" width="2" height="4" rx="1" fill="#64CCC5"/>
</svg>
