<?xml version="1.0" encoding="UTF-8"?>
<svg width="24px" height="24px" viewBox="0 0 24 24" xmlns="http://www.w3.org/2000/svg">
  <path d="M12,2 C16.418278,2 20,5.581722 20,10 L20,14 C20,18.418278 16.418278,22 12,22 C7.581722,22 4,18.418278 4,14 L4,10 C4,5.581722 7.581722,2 12,2 Z M12,4 C8.6862915,4 6,6.6862915 6,10 L6,14 C6,17.3137085 8.6862915,20 12,20 C15.3137085,20 18,17.3137085 18,14 L18,10 C18,6.6862915 15.3137085,4 12,4 Z M12,6 C14.209139,6 16,7.790861 16,10 L16,14 C16,16.209139 14.209139,18 12,18 C9.790861,18 8,16.209139 8,14 L8,10 C8,7.790861 9.790861,6 12,6 Z M12,10 C13.1045695,10 14,10.8954305 14,12 C14,13.1045695 13.1045695,14 12,14 C10.8954305,14 10,13.1045695 10,12 C10,10.8954305 10.8954305,10 12,10 Z" fill="#176B87"/>
</svg>
