<svg width="1112" height="365" viewBox="0 0 1112 365" fill="none" xmlns="http://www.w3.org/2000/svg">
<path d="M319.76 195C323.84 195 328.4 194.88 333.44 194.64C333.44 198 333.2 200.64 332.72 202.56C329.72 203.04 326.96 204.24 324.44 206.16C321.92 207.96 319.58 210.96 317.42 215.16L296 257.1V260.88C296 265.68 296.24 269.1 296.72 271.14C297.32 273.18 298.46 274.62 300.14 275.46C301.82 276.3 304.58 276.9 308.42 277.26C309.14 279.9 309.5 282.6 309.5 285.36C299.9 285.12 292.76 285 288.08 285C279.56 285 271.94 285.12 265.22 285.36C265.22 282.24 265.58 279.54 266.3 277.26C270.5 276.9 273.44 276.36 275.12 275.64C276.8 274.92 277.94 273.6 278.54 271.68C279.14 269.64 279.44 266.28 279.44 261.6V257.28L253.7 210.48C251.9 207.6 250.16 205.62 248.48 204.54C246.92 203.46 244.76 202.86 242 202.74C241.4 200.58 241.1 197.88 241.1 194.64C247.34 194.88 253.16 195 258.56 195C269.72 195 276.98 194.88 280.34 194.64C280.34 197.64 280.1 200.28 279.62 202.56C276.98 202.8 275.06 203.28 273.86 204C272.66 204.72 272.06 205.74 272.06 207.06C272.06 208.62 272.9 210.78 274.58 213.54C279.38 221.58 285.5 233.22 292.94 248.46C297.86 237.66 303.56 226.2 310.04 214.08C311.84 210.84 312.74 208.44 312.74 206.88C312.74 205.56 312.14 204.6 310.94 204C309.86 203.4 308 202.98 305.36 202.74C304.52 199.74 304.1 197.04 304.1 194.64C306.86 194.88 312.08 195 319.76 195ZM428.937 263.94C432.177 268.74 435.477 272.16 438.837 274.2C442.317 276.12 446.577 277.2 451.617 277.44C451.617 280.92 451.377 283.44 450.897 285C440.697 285 432.057 285.42 424.977 286.26C424.137 284.82 422.517 282.3 420.117 278.7L412.017 265.56C407.577 258.12 401.697 252.06 394.377 247.38L388.617 247.56L383.397 247.38V263.76C383.397 267.72 383.697 270.66 384.297 272.58C384.897 274.5 385.857 275.82 387.177 276.54C388.617 277.26 390.777 277.68 393.657 277.8C394.137 279.24 394.377 281.76 394.377 285.36C389.937 285.12 383.397 285 374.757 285C368.397 285 361.857 285.12 355.137 285.36C355.137 282 355.437 279.48 356.037 277.8C359.037 277.56 361.257 277.08 362.697 276.36C364.257 275.64 365.337 274.38 365.937 272.58C366.537 270.78 366.837 268.08 366.837 264.48V215.7C366.837 210.54 366.117 207.12 364.677 205.44C363.237 203.76 360.357 202.8 356.037 202.56C355.437 200.76 355.137 198.12 355.137 194.64C359.697 194.88 366.297 195 374.937 195L387.897 194.82C394.137 194.58 398.877 194.46 402.117 194.46C413.637 194.46 422.337 196.68 428.217 201.12C434.097 205.56 437.037 211.26 437.037 218.22C437.037 225.18 434.817 230.94 430.377 235.5C425.937 239.94 419.757 242.94 411.837 244.5C414.837 246.3 417.297 248.4 419.217 250.8C421.257 253.08 424.497 257.46 428.937 263.94ZM390.237 238.56C398.877 238.56 405.957 237.06 411.477 234.06C416.997 230.94 419.757 226.44 419.757 220.56C419.757 208.32 411.357 202.2 394.557 202.2C390.717 202.2 386.997 202.56 383.397 203.28V238.02C385.917 238.38 388.197 238.56 390.237 238.56ZM520.456 286.62C510.136 286.62 501.016 284.7 493.096 280.86C485.176 277.02 478.996 271.62 474.556 264.66C470.236 257.7 468.076 249.6 468.076 240.36C468.076 231.24 470.236 223.14 474.556 216.06C478.996 208.98 485.176 203.52 493.096 199.68C501.136 195.72 510.376 193.74 520.816 193.74C531.136 193.74 540.256 195.66 548.176 199.5C556.096 203.34 562.216 208.8 566.536 215.88C570.976 222.84 573.196 230.88 573.196 240C573.196 249.24 570.976 257.4 566.536 264.48C562.216 271.44 556.036 276.9 547.996 280.86C540.076 284.7 530.896 286.62 520.456 286.62ZM522.976 278.34C532.696 278.34 540.376 275.1 546.016 268.62C551.776 262.14 554.656 253.5 554.656 242.7C554.656 234.9 553.096 227.94 549.976 221.82C546.856 215.58 542.476 210.72 536.836 207.24C531.316 203.76 525.076 202.02 518.116 202.02C508.396 202.02 500.716 205.32 495.076 211.92C489.436 218.4 486.616 226.98 486.616 237.66C486.616 245.7 488.176 252.84 491.296 259.08C494.416 265.2 498.736 269.94 504.256 273.3C509.776 276.66 516.016 278.34 522.976 278.34ZM634.276 286.26C627.676 286.26 621.676 285.6 616.276 284.28C610.996 282.96 605.236 280.98 598.996 278.34C600.316 270.3 600.796 263.34 600.436 257.46C603.076 256.62 606.316 256.2 610.156 256.2C610.396 263.64 612.736 269.04 617.176 272.4C621.736 275.76 628.096 277.44 636.256 277.44C643.216 277.44 648.676 276.36 652.636 274.2C656.716 272.04 658.756 269.16 658.756 265.56C658.756 263.04 657.736 260.88 655.696 259.08C653.776 257.16 651.376 255.6 648.496 254.4C645.736 253.08 641.656 251.46 636.256 249.54C628.816 247.02 622.816 244.68 618.256 242.52C613.816 240.24 609.916 237.18 606.556 233.34C603.316 229.38 601.696 224.46 601.696 218.58C601.696 210.54 604.696 204.42 610.696 200.22C616.816 196.02 625.156 193.92 635.716 193.92C641.356 193.92 646.936 194.46 652.456 195.54C658.096 196.62 662.476 198 665.596 199.68C665.476 201 665.416 203.04 665.416 205.8C665.416 211.2 665.776 215.46 666.496 218.58C663.976 219.9 660.676 220.56 656.596 220.56C654.916 213.72 652.156 208.98 648.316 206.34C644.596 203.58 639.976 202.2 634.456 202.2C629.176 202.2 624.856 203.1 621.496 204.9C618.256 206.7 616.636 209.34 616.636 212.82C616.636 216.78 618.556 219.96 622.396 222.36C626.236 224.76 632.236 227.4 640.396 230.28C647.356 232.68 653.056 234.96 657.496 237.12C661.936 239.28 665.716 242.22 668.836 245.94C671.956 249.54 673.516 254.1 673.516 259.62C673.516 267.54 670.276 273.96 663.796 278.88C657.316 283.8 647.476 286.26 634.276 286.26ZM743.931 276.9C749.571 276.9 754.011 276.36 757.251 275.28C760.611 274.08 763.251 272.28 765.171 269.88C767.211 267.36 769.131 263.88 770.931 259.44C774.171 260.04 776.811 261.36 778.851 263.4C776.691 269.04 775.071 276.3 773.991 285.18L742.131 285C724.851 285 710.931 285.12 700.371 285.36C700.371 281.64 700.671 278.94 701.271 277.26C704.151 277.02 706.371 276.54 707.931 275.82C709.491 275.1 710.571 273.78 711.171 271.86C711.891 269.94 712.251 267.06 712.251 263.22V215.88C712.251 212.4 711.891 209.76 711.171 207.96C710.571 206.16 709.491 204.9 707.931 204.18C706.491 203.46 704.271 202.98 701.271 202.74C700.791 200.82 700.551 198.12 700.551 194.64C709.191 194.88 715.851 195 720.531 195C725.451 195 732.111 194.88 740.511 194.64C740.511 198.24 740.211 200.94 739.611 202.74C735.411 202.98 732.531 204 730.971 205.8C729.531 207.48 728.811 210.9 728.811 216.06V262.86C728.811 266.7 729.171 269.64 729.891 271.68C730.611 273.6 731.931 274.98 733.851 275.82C735.891 276.54 738.891 276.9 742.851 276.9H743.931ZM891.488 277.26C892.088 279.06 892.388 281.76 892.388 285.36C887.588 285.12 881.408 285 873.848 285C865.928 285 859.568 285.12 854.768 285.36C854.768 281.64 855.128 278.94 855.848 277.26C858.608 276.9 860.528 276.42 861.608 275.82C862.808 275.1 863.408 274.08 863.408 272.76C863.408 271.68 862.808 269.82 861.608 267.18L858.008 259.44C840.728 259.44 827.108 259.74 817.148 260.34L815.168 265.02C813.968 267.78 813.368 269.94 813.368 271.5C813.368 274.86 815.828 276.78 820.748 277.26C821.468 279.42 821.828 282.12 821.828 285.36C817.268 285.12 812.288 285 806.888 285C802.208 285 797.948 285.12 794.108 285.36C794.108 282.48 794.468 279.78 795.188 277.26C797.828 276.78 799.868 275.7 801.308 274.02C802.748 272.22 804.668 268.68 807.068 263.4L838.028 194.82C840.308 194.34 842.708 194.1 845.228 194.1L878.348 262.86C880.988 268.38 883.208 272.1 885.008 274.02C886.928 275.94 889.088 277.02 891.488 277.26ZM854.408 252.06L843.608 229.38C840.488 223.02 838.328 217.98 837.128 214.26C836.168 217.26 834.968 220.26 833.528 223.26C832.208 226.14 831.368 227.94 831.008 228.66L820.748 252.06H854.408ZM983.319 195C987.999 195 993.339 194.88 999.339 194.64C999.339 197.88 999.039 200.46 998.439 202.38C993.639 203.22 989.259 208.2 985.299 217.32C975.819 238.2 964.779 260.82 952.179 285.18C950.379 285.78 948.039 286.08 945.159 286.08C933.999 261.84 923.079 239.4 912.399 218.76C909.759 213.48 907.839 209.94 906.639 208.14C905.559 206.22 904.419 204.84 903.219 204C902.139 203.16 900.639 202.62 898.719 202.38C898.119 200.7 897.819 198.12 897.819 194.64C903.579 194.88 910.179 195 917.619 195C922.299 195 928.959 194.88 937.599 194.64C937.599 197.64 937.299 200.22 936.699 202.38C933.579 202.62 931.239 203.1 929.679 203.82C928.239 204.54 927.519 205.74 927.519 207.42C927.519 209.58 928.659 212.7 930.939 216.78C939.339 232.38 946.839 247.74 953.439 262.86C963.279 243.66 970.659 228.54 975.579 217.5C977.019 214.26 977.739 211.5 977.739 209.22C977.739 205.14 975.219 202.86 970.179 202.38C969.579 200.7 969.279 198.12 969.279 194.64C975.279 194.88 979.959 195 983.319 195ZM1102.25 277.26C1102.85 279.06 1103.15 281.76 1103.15 285.36C1098.35 285.12 1092.17 285 1084.61 285C1076.69 285 1070.33 285.12 1065.53 285.36C1065.53 281.64 1065.89 278.94 1066.61 277.26C1069.37 276.9 1071.29 276.42 1072.37 275.82C1073.57 275.1 1074.17 274.08 1074.17 272.76C1074.17 271.68 1073.57 269.82 1072.37 267.18L1068.77 259.44C1051.49 259.44 1037.87 259.74 1027.91 260.34L1025.93 265.02C1024.73 267.78 1024.13 269.94 1024.13 271.5C1024.13 274.86 1026.59 276.78 1031.51 277.26C1032.23 279.42 1032.59 282.12 1032.59 285.36C1028.03 285.12 1023.05 285 1017.65 285C1012.97 285 1008.71 285.12 1004.87 285.36C1004.87 282.48 1005.23 279.78 1005.95 277.26C1008.59 276.78 1010.63 275.7 1012.07 274.02C1013.51 272.22 1015.43 268.68 1017.83 263.4L1048.79 194.82C1051.07 194.34 1053.47 194.1 1055.99 194.1L1089.11 262.86C1091.75 268.38 1093.97 272.1 1095.77 274.02C1097.69 275.94 1099.85 277.02 1102.25 277.26ZM1065.17 252.06L1054.37 229.38C1051.25 223.02 1049.09 217.98 1047.89 214.26C1046.93 217.26 1045.73 220.26 1044.29 223.26C1042.97 226.14 1042.13 227.94 1041.77 228.66L1031.51 252.06H1065.17Z" fill="#1A3E5D"/>
<path d="M66.2175 285H25.6378V121.44L66.2175 176.456V285Z" fill="#1A3E5D"/>
<path d="M229.986 285H189.406V176.456L229.986 121.44V285Z" fill="#1A3E5D"/>
<path d="M66.2175 285H25.6378V121.44L66.2175 176.456V285Z" stroke="#1A3E5D"/>
<path d="M229.986 285H189.406V176.456L229.986 121.44V285Z" stroke="#1A3E5D"/>
<path d="M123.464 240.393L1 58.9895L123.464 170.508L301 1L123.464 240.393Z" fill="#1A3E5D" stroke="#1A3E5D"/>
</svg>
